<svg width="32" height="32" viewBox="0 0 32 32" fill="none" xmlns="http://www.w3.org/2000/svg">
    <g clip-path="url(#clip0_405_198)">
        <path d="M23.383 5.76335C23.3303 5.53944 23.1906 5.34574 22.995 5.22476C22.7993 5.10384 22.5636 5.0656 22.3397 5.11837L0.668136 10.2314C0.444226 10.2841 0.2506 10.4238 0.129611 10.6194C0.00862163 10.8151 -0.0296121 11.0508 0.023149 11.2747L3.55309 26.2365C3.64733 26.6357 4.00344 26.9048 4.39654 26.9048C4.46246 26.9048 4.52946 26.8972 4.59646 26.8815L26.268 21.7686C26.4919 21.7158 26.6855 21.5762 26.8065 21.3806C26.9275 21.1849 26.9657 20.9492 26.913 20.7253L23.383 5.76335ZM23.4909 13.775L19.7784 11.6185L22.1505 8.09337L23.4909 13.775ZM2.1672 12.8079L5.86489 14.9012L3.5077 18.4895L2.1672 12.8079ZM3.22113 11.4113L20.5834 7.31504L13.798 17.3988L3.22113 11.4113ZM5.04225 24.994L4.05605 20.8142L7.37776 15.7575L13.6422 19.3037C13.7768 19.38 13.9237 19.4164 14.0687 19.4164C14.3488 19.4164 14.6224 19.2808 14.789 19.0332L18.8078 13.0608L24.0393 16.0996L25.0254 20.2794L5.04225 24.994Z" fill="#6F7985"/>
        <path d="M31.1328 5.67725H25.6837C25.2047 5.67725 24.8164 6.06558 24.8164 6.54455C24.8164 7.02352 25.2047 7.41186 25.6837 7.41186H31.1328C31.6118 7.41186 32.0001 7.02352 32.0001 6.54455C32.0001 6.06558 31.6118 5.67725 31.1328 5.67725Z" fill="#6F7985"/>
        <path d="M30.2172 10.0947H26.5997C26.1207 10.0947 25.7324 10.4831 25.7324 10.962C25.7324 11.441 26.1207 11.8293 26.5997 11.8293H30.2172C30.6962 11.8293 31.0845 11.441 31.0845 10.962C31.0845 10.4831 30.6962 10.0947 30.2172 10.0947Z" fill="#6F7985"/>
        <path d="M29.3489 14.5122H27.4679C26.9889 14.5122 26.6006 14.9005 26.6006 15.3795C26.6006 15.8585 26.9889 16.2468 27.4679 16.2468H29.3489C29.8279 16.2468 30.2162 15.8585 30.2162 15.3795C30.2162 14.9005 29.8279 14.5122 29.3489 14.5122Z" fill="#6F7985"/>
    </g>
    <defs>
        <clipPath id="clip0_405_198">
            <rect width="32" height="32" fill="white"/>
        </clipPath>
    </defs>
</svg>
