<svg width="32" height="32" viewBox="0 0 32 32" fill="none" xmlns="http://www.w3.org/2000/svg">
    <g clip-path="url(#clip0_422_222)">
        <path d="M25.4741 8.3229C25.4744 8.09285 25.3831 7.8722 25.2206 7.70939C25.0581 7.54665 24.8375 7.45513 24.6075 7.4549L2.3409 7.43755C2.11086 7.43731 1.89027 7.52858 1.72746 7.69109C1.56465 7.8536 1.47313 8.07421 1.4729 8.30419L1.46091 23.6768C1.46066 24.0869 1.74517 24.4309 2.12771 24.5215C2.19185 24.5366 2.25879 24.5447 2.32762 24.5448L24.5941 24.5623C24.8242 24.5624 25.0447 24.4712 25.2075 24.3087C25.3704 24.1462 25.4619 23.9256 25.4621 23.6956L25.4741 8.3229ZM23.7333 16.1438L20.6175 13.1901L23.7379 10.3063L23.7333 16.1438ZM3.20604 10.2902L6.32201 13.179L3.20153 16.1277L3.20604 10.2902ZM4.55338 9.17388L22.3923 9.18784L13.4663 17.4371L4.55338 9.17388ZM3.19627 22.8108L3.19957 18.5162L7.59689 14.3609L12.8758 19.2549C12.9892 19.3601 13.1238 19.4294 13.2649 19.4628C13.5375 19.5273 13.8349 19.4584 14.0541 19.2559L19.3407 14.37L23.7314 18.5322L23.7281 22.8268L3.19627 22.8108Z" fill="#6F7985"/>
    </g>
    <defs>
        <clipPath id="clip0_422_222">
            <rect width="32" height="32" fill="white"/>
        </clipPath>
    </defs>
</svg>
